<svg width="141" height="43" viewBox="0 0 141 43" fill="none" xmlns="http://www.w3.org/2000/svg">
<g filter="url(#filter0_i_101_2)">
<path d="M72.277 9.58H76.501V19.975H76.732C77.194 18.941 77.821 18.116 78.613 17.5C79.427 16.884 80.494 16.576 81.814 16.576C82.782 16.576 83.662 16.763 84.454 17.137C85.268 17.489 85.961 18.039 86.533 18.787C87.105 19.513 87.545 20.437 87.853 21.559C88.161 22.681 88.315 23.99 88.315 25.486C88.315 26.982 88.161 28.291 87.853 29.413C87.545 30.535 87.105 31.47 86.533 32.218C85.961 32.944 85.268 33.494 84.454 33.868C83.662 34.22 82.782 34.396 81.814 34.396C80.494 34.396 79.427 34.088 78.613 33.472C77.821 32.856 77.194 32.031 76.732 30.997H76.501V34H72.277V9.58ZM80.032 31.03C81.264 31.03 82.21 30.656 82.87 29.908C83.552 29.16 83.893 28.137 83.893 26.839V24.133C83.893 22.835 83.552 21.812 82.87 21.064C82.21 20.316 81.264 19.942 80.032 19.942C79.064 19.942 78.228 20.184 77.524 20.668C76.842 21.13 76.501 21.845 76.501 22.813V28.159C76.501 29.127 76.842 29.853 77.524 30.337C78.228 30.799 79.064 31.03 80.032 31.03ZM102.987 34C101.953 34 101.15 33.747 100.578 33.241C100.028 32.713 99.6981 31.987 99.5881 31.063H99.4231C99.1151 32.119 98.5101 32.944 97.6081 33.538C96.7061 34.11 95.5951 34.396 94.2751 34.396C92.5591 34.396 91.1951 33.945 90.1831 33.043C89.1711 32.141 88.6651 30.887 88.6651 29.281C88.6651 25.849 91.1841 24.133 96.2221 24.133H99.2251V23.011C99.2251 21.933 98.9611 21.119 98.4331 20.569C97.9051 20.019 97.0471 19.744 95.8591 19.744C94.7811 19.744 93.9121 19.953 93.2521 20.371C92.5921 20.789 92.0311 21.328 91.5691 21.988L89.1601 19.942C89.6881 18.996 90.5351 18.204 91.7011 17.566C92.8891 16.906 94.4181 16.576 96.2881 16.576C98.5321 16.576 100.281 17.104 101.535 18.16C102.811 19.194 103.449 20.745 103.449 22.813V30.832H105.462V34H102.987ZM95.6941 31.492C96.7061 31.492 97.5421 31.261 98.2021 30.799C98.8841 30.315 99.2251 29.666 99.2251 28.852V26.575H96.3211C94.0111 26.575 92.8561 27.301 92.8561 28.753V29.413C92.8561 30.095 93.1091 30.612 93.6151 30.964C94.1211 31.316 94.8141 31.492 95.6941 31.492ZM106.01 34V30.403L115.91 20.305H106.34V16.972H120.728V20.569L110.828 30.667H121.058V34H106.01ZM121.672 34V16.972H125.17V19.315H125.368C125.632 18.567 126.006 17.929 126.49 17.401C126.996 16.851 127.7 16.576 128.602 16.576C129.46 16.576 130.142 16.829 130.648 17.335C131.154 17.819 131.484 18.512 131.638 19.414H131.803C132.089 18.644 132.507 17.984 133.057 17.434C133.629 16.862 134.432 16.576 135.466 16.576C136.72 16.576 137.622 17.027 138.172 17.929C138.722 18.831 138.997 20.162 138.997 21.922V34H135.532V22.417C135.532 21.427 135.389 20.734 135.103 20.338C134.839 19.942 134.432 19.744 133.882 19.744C133.376 19.744 132.947 19.909 132.595 20.239C132.265 20.569 132.1 21.075 132.1 21.757V34H128.602V22.417C128.602 21.427 128.47 20.734 128.206 20.338C127.942 19.942 127.535 19.744 126.985 19.744C126.457 19.744 126.017 19.909 125.665 20.239C125.335 20.569 125.17 21.075 125.17 21.757V34H121.672Z" fill="#FF1D64"/>
</g>
<path d="M72 9H74.2727H77V18.2391V26.3913V34H72V9Z" fill="#FF1D64"/>
<g filter="url(#filter1_i_101_2)">
<path d="M2.277 9.58H6.501V19.975H6.732C7.194 18.941 7.821 18.116 8.613 17.5C9.427 16.884 10.494 16.576 11.814 16.576C12.782 16.576 13.662 16.763 14.454 17.137C15.268 17.489 15.961 18.039 16.533 18.787C17.105 19.513 17.545 20.437 17.853 21.559C18.161 22.681 18.315 23.99 18.315 25.486C18.315 26.982 18.161 28.291 17.853 29.413C17.545 30.535 17.105 31.47 16.533 32.218C15.961 32.944 15.268 33.494 14.454 33.868C13.662 34.22 12.782 34.396 11.814 34.396C10.494 34.396 9.427 34.088 8.613 33.472C7.821 32.856 7.194 32.031 6.732 30.997H6.501V34H2.277V9.58ZM10.032 31.03C11.264 31.03 12.21 30.656 12.87 29.908C13.552 29.16 13.893 28.137 13.893 26.839V24.133C13.893 22.835 13.552 21.812 12.87 21.064C12.21 20.316 11.264 19.942 10.032 19.942C9.064 19.942 8.228 20.184 7.524 20.668C6.842 21.13 6.501 21.845 6.501 22.813V28.159C6.501 29.127 6.842 29.853 7.524 30.337C8.228 30.799 9.064 31.03 10.032 31.03ZM26.7171 34.396C25.4191 34.396 24.2531 34.187 23.2191 33.769C22.2071 33.351 21.3381 32.757 20.6121 31.987C19.9081 31.217 19.3581 30.282 18.9621 29.182C18.5881 28.082 18.4011 26.85 18.4011 25.486C18.4011 24.122 18.5881 22.89 18.9621 21.79C19.3581 20.69 19.9081 19.755 20.6121 18.985C21.3381 18.215 22.2071 17.621 23.2191 17.203C24.2531 16.785 25.4191 16.576 26.7171 16.576C27.9931 16.576 29.1481 16.785 30.1821 17.203C31.2161 17.621 32.0851 18.215 32.7891 18.985C33.5151 19.755 34.0651 20.69 34.4391 21.79C34.8351 22.89 35.0331 24.122 35.0331 25.486C35.0331 26.85 34.8351 28.082 34.4391 29.182C34.0651 30.282 33.5151 31.217 32.7891 31.987C32.0851 32.757 31.2161 33.351 30.1821 33.769C29.1481 34.187 27.9931 34.396 26.7171 34.396ZM26.7171 31.162C27.9271 31.162 28.8841 30.799 29.5881 30.073C30.2921 29.325 30.6441 28.236 30.6441 26.806V24.166C30.6441 22.736 30.2921 21.658 29.5881 20.932C28.8841 20.184 27.9271 19.81 26.7171 19.81C25.5071 19.81 24.5501 20.184 23.8461 20.932C23.1421 21.658 22.7901 22.736 22.7901 24.166V26.806C22.7901 28.236 23.1421 29.325 23.8461 30.073C24.5501 30.799 25.5071 31.162 26.7171 31.162ZM43.5342 34.396C42.2362 34.396 41.0702 34.187 40.0362 33.769C39.0242 33.351 38.1552 32.757 37.4292 31.987C36.7252 31.217 36.1752 30.282 35.7792 29.182C35.4052 28.082 35.2182 26.85 35.2182 25.486C35.2182 24.122 35.4052 22.89 35.7792 21.79C36.1752 20.69 36.7252 19.755 37.4292 18.985C38.1552 18.215 39.0242 17.621 40.0362 17.203C41.0702 16.785 42.2362 16.576 43.5342 16.576C44.8102 16.576 45.9652 16.785 46.9992 17.203C48.0332 17.621 48.9022 18.215 49.6062 18.985C50.3322 19.755 50.8822 20.69 51.2562 21.79C51.6522 22.89 51.8502 24.122 51.8502 25.486C51.8502 26.85 51.6522 28.082 51.2562 29.182C50.8822 30.282 50.3322 31.217 49.6062 31.987C48.9022 32.757 48.0332 33.351 46.9992 33.769C45.9652 34.187 44.8102 34.396 43.5342 34.396ZM43.5342 31.162C44.7442 31.162 45.7012 30.799 46.4052 30.073C47.1092 29.325 47.4612 28.236 47.4612 26.806V24.166C47.4612 22.736 47.1092 21.658 46.4052 20.932C45.7012 20.184 44.7442 19.81 43.5342 19.81C42.3242 19.81 41.3672 20.184 40.6632 20.932C39.9592 21.658 39.6072 22.736 39.6072 24.166V26.806C39.6072 28.236 39.9592 29.325 40.6632 30.073C41.3672 30.799 42.3242 31.162 43.5342 31.162ZM52.9923 9.58H57.2163V23.902H57.4143L59.8893 21.196L64.0803 16.972H68.9973L62.2323 23.671L69.7233 34H64.6743L59.2293 26.08L57.2163 27.994V34H52.9923V9.58Z" fill="black"/>
</g>
<path d="M2 9H4.27273H7V18.2391V26.3913V34H2V9Z" fill="black"/>
<defs>
<filter id="filter0_i_101_2" x="72.277" y="9.58008" width="66.7203" height="28.8159" filterUnits="userSpaceOnUse" color-interpolation-filters="sRGB">
<feFlood flood-opacity="0" result="BackgroundImageFix"/>
<feBlend mode="normal" in="SourceGraphic" in2="BackgroundImageFix" result="shape"/>
<feColorMatrix in="SourceAlpha" type="matrix" values="0 0 0 0 0 0 0 0 0 0 0 0 0 0 0 0 0 0 127 0" result="hardAlpha"/>
<feOffset dy="4"/>
<feGaussianBlur stdDeviation="2"/>
<feComposite in2="hardAlpha" operator="arithmetic" k2="-1" k3="1"/>
<feColorMatrix type="matrix" values="0 0 0 0 1 0 0 0 0 1 0 0 0 0 1 0 0 0 0.11 0"/>
<feBlend mode="normal" in2="shape" result="effect1_innerShadow_101_2"/>
</filter>
<filter id="filter1_i_101_2" x="2.27701" y="9.58008" width="67.4463" height="28.8159" filterUnits="userSpaceOnUse" color-interpolation-filters="sRGB">
<feFlood flood-opacity="0" result="BackgroundImageFix"/>
<feBlend mode="normal" in="SourceGraphic" in2="BackgroundImageFix" result="shape"/>
<feColorMatrix in="SourceAlpha" type="matrix" values="0 0 0 0 0 0 0 0 0 0 0 0 0 0 0 0 0 0 127 0" result="hardAlpha"/>
<feOffset dy="4"/>
<feGaussianBlur stdDeviation="2"/>
<feComposite in2="hardAlpha" operator="arithmetic" k2="-1" k3="1"/>
<feColorMatrix type="matrix" values="0 0 0 0 1 0 0 0 0 1 0 0 0 0 1 0 0 0 0.11 0"/>
<feBlend mode="normal" in2="shape" result="effect1_innerShadow_101_2"/>
</filter>
</defs>
</svg>
