<svg width="26" height="20" viewBox="0 0 26 20" fill="none" xmlns="http://www.w3.org/2000/svg">
<path d="M9.75781 3.70776H16.4502L16.5443 16.2934H9.85194L9.75781 3.70776Z" fill="#FF5F00"/>
<path d="M9.93135 10C9.9291 7.54533 11.0608 5.226 13.0002 3.7105C9.70593 1.1324 4.97488 1.50764 2.13209 4.57248C-0.710696 7.63731 -0.710696 12.3627 2.13209 15.4275C4.97488 18.4924 9.70593 18.8676 13.0002 16.2895C11.0608 14.774 9.92911 12.4547 9.93135 10Z" fill="#EB001B"/>
<path d="M25.9998 9.99994C25.9999 13.0627 24.2436 15.8567 21.4768 17.1953C18.71 18.5339 15.4185 18.1822 13 16.2894C14.9376 14.7725 16.0688 12.4541 16.0688 9.99994C16.0688 7.54579 14.9376 5.22739 13 3.71044C15.4185 1.81771 18.71 1.46596 21.4768 2.80457C24.2436 4.14319 25.9999 6.93718 25.9998 9.99994V9.99994Z" fill="#F79E1B"/>
</svg>
