<svg width="30" height="20" viewBox="0 0 30 20" fill="none" xmlns="http://www.w3.org/2000/svg">
<path fill-rule="evenodd" clip-rule="evenodd" d="M21.4302 11.6909C21.4364 10.1635 20.211 9.49973 19.2306 8.96862C18.5723 8.61202 18.0244 8.31525 18.0339 7.8571C18.0412 7.51004 18.362 7.14121 19.0622 7.04687C19.4095 6.99994 20.3665 6.96397 21.4527 7.47972L21.8785 5.42866C21.2952 5.2103 20.5448 5 19.6111 5C17.215 5 15.5288 6.31469 15.5146 8.19722C15.499 9.58964 16.7177 10.3667 17.6366 10.8292C18.5814 11.3032 18.8983 11.6075 18.8948 12.0315C18.8879 12.6803 18.1412 12.9668 17.4433 12.978C16.2628 12.9967 15.5627 12.6599 15.0076 12.3928L14.9541 12.3671L14.5148 14.486C15.0812 14.7544 16.1266 14.9884 17.2106 15C19.7575 15 21.4232 13.7016 21.431 11.6909H21.4302ZM11.3902 5.17659L7.46262 14.8487H4.90019L2.96742 7.13057C2.85008 6.65514 2.74868 6.48096 2.39134 6.28082C1.8087 5.95441 0.84654 5.64848 0 5.45834L0.0582797 5.17659H4.18317C4.70878 5.17659 5.18143 5.53784 5.3008 6.16293L6.32155 11.7591L8.8443 5.17595L11.3902 5.17659ZM30 14.8487H27.758L27.4646 13.4041H24.3545L23.8494 14.8487H21.304L24.9417 5.88619C25.112 5.45383 25.5207 5.17257 25.9729 5.17659H28.0419L30 14.8487ZM25.0533 11.4217L26.3292 7.79001L27.0635 11.4217H25.0533ZM12.8492 14.8487L14.8537 5.17659H12.4305L10.4252 14.8487H12.8492Z" fill="#1434CB"/>
</svg>
